<?xml version="1.0" standalone="no"?>
<!DOCTYPE svg PUBLIC "-//W3C//DTD SVG 20010904//EN"
 "http://www.w3.org/TR/2001/REC-SVG-20010904/DTD/svg10.dtd">
<svg version="1.0" xmlns="http://www.w3.org/2000/svg"
 width="1280.000000pt" height="1170.000000pt" viewBox="0 0 1280.000000 1170.000000"
 preserveAspectRatio="xMidYMid meet">
<metadata>
Created by potrace 1.15, written by Peter Selinger 2001-2017
</metadata>
<g transform="translate(0.000000,1170.000000) scale(0.100000,-0.100000)"
fill="#000000" stroke="none">
<path d="M4453 10745 c-16 -43 50 -286 94 -343 15 -20 22 -32 16 -29 -6 4 -57
69 -114 145 -56 75 -107 142 -112 147 -12 12 -15 19 71 -180 57 -131 192 -475
209 -535 2 -8 -2 -4 -11 10 -13 23 -15 -3 -15 -275 -1 -658 -72 -1251 -189
-1568 -66 -180 -227 -258 -438 -212 -240 52 -629 192 -1121 404 -155 66 -307
127 -338 135 -30 8 -60 18 -65 21 -6 3 -10 4 -10 1 0 -3 26 -19 58 -35 31 -17
54 -30 49 -31 -4 0 -84 38 -177 85 -93 47 -172 85 -176 85 -3 0 46 -57 108
-127 63 -71 159 -182 215 -248 87 -104 101 -125 99 -153 -4 -56 -25 -67 -124
-67 -68 1 -119 9 -237 40 l-150 40 -230 0 c-126 0 -243 4 -260 8 l-30 8 30
-15 c29 -15 17 -15 -34 -1 -18 6 -21 9 -10 16 10 7 6 8 -11 4 -16 -4 -93 17
-220 60 -107 36 -198 65 -203 65 -5 0 35 -35 89 -78 55 -42 129 -101 167 -130
37 -30 64 -59 60 -64 -3 -6 -2 -8 4 -5 12 8 55 -21 48 -32 -2 -5 5 -17 17 -27
12 -11 18 -13 14 -6 -4 6 -4 12 -1 12 9 0 225 -180 225 -187 0 -2 -34 24 -76
59 -105 87 -134 110 -134 105 0 -2 80 -74 178 -159 231 -203 393 -360 437
-427 44 -66 47 -115 10 -159 -47 -56 -77 -62 -480 -92 -77 -6 -149 -12 -160
-14 -11 -3 -25 -5 -31 -5 -7 -1 -22 -9 -34 -19 -35 -29 -12 -56 90 -107 71
-36 102 -45 147 -47 32 -1 -31 -5 -140 -8 l-198 -5 203 -69 c479 -162 1302
-485 1284 -504 -3 -2 10 -23 30 -45 19 -23 47 -66 62 -97 23 -47 27 -68 27
-140 0 -74 -3 -91 -27 -134 l-28 -48 25 16 c14 9 25 14 25 11 0 -9 -222 -171
-355 -257 -440 -287 -1078 -626 -1715 -910 l-155 -69 110 6 c61 3 139 7 175
10 l65 4 -63 -11 c-35 -5 -61 -12 -58 -16 3 -3 0 -12 -6 -20 -10 -11 -8 -18
10 -32 29 -24 133 -34 290 -26 332 15 601 18 670 6 81 -13 145 -50 163 -92 6
-16 9 -49 6 -74 l-5 -47 22 25 c38 43 3 -5 -49 -67 -158 -189 -507 -564 -658
-707 -45 -43 -78 -77 -73 -78 4 0 35 7 68 16 33 8 62 13 65 11 2 -3 -10 -8
-27 -12 -21 -5 -39 -19 -57 -48 -53 -82 -40 -107 52 -107 35 0 107 9 162 20
65 14 167 24 308 30 167 7 260 18 451 49 525 88 896 115 1014 76 108 -36 132
-127 67 -256 -19 -38 -85 -144 -145 -236 -133 -203 -195 -315 -190 -345 2 -17
11 -24 33 -26 24 -3 36 3 64 35 35 40 -51 -90 -120 -182 -21 -27 -36 -51 -35
-53 2 -1 50 29 107 69 323 223 989 633 888 546 -8 -6 -12 -11 -10 -10 9 5 61
-29 62 -40 0 -6 5 -3 10 8 19 41 -6 -367 -42 -670 -41 -352 -118 -832 -188
-1180 -21 -104 -38 -191 -37 -192 2 -2 37 55 79 125 82 137 121 194 91 133
-23 -48 -26 -237 -4 -251 8 -5 19 -10 25 -10 24 0 131 131 244 300 189 281
331 480 379 528 112 113 225 103 302 -25 32 -52 90 -208 155 -413 19 -62 34
-96 37 -85 2 11 12 -14 23 -57 20 -82 31 -97 38 -50 2 15 3 10 2 -10 -4 -47
23 -75 54 -59 34 19 60 90 111 306 100 423 245 851 372 1095 76 148 146 209
223 194 45 -8 102 -65 130 -128 64 -147 198 -639 266 -980 17 -83 32 -152 35
-155 6 -7 5 0 -11 86 -8 43 -14 85 -14 93 2 24 55 -248 89 -460 18 -107 34
-202 37 -210 5 -13 17 39 79 338 11 54 20 78 26 70 5 -8 7 -4 3 12 -3 14 1 52
9 85 8 36 15 50 16 35 1 -14 22 53 46 149 66 259 142 519 169 578 32 71 70
118 106 133 36 15 95 7 121 -17 19 -17 19 -16 8 11 -6 16 -9 31 -6 33 4 5 183
-442 248 -622 l43 -120 6 70 c4 39 7 111 8 160 1 60 4 85 11 75 18 -28 22 -14
51 169 25 165 37 199 81 243 104 104 199 75 685 -209 100 -58 116 -64 87 -31
-10 12 -13 18 -7 14 7 -4 77 -82 156 -174 123 -144 199 -236 329 -402 19 -24
4 15 -48 129 -41 90 -73 166 -71 168 3 2 10 -9 16 -25 15 -36 210 -227 239
-234 35 -10 55 18 49 66 -7 51 -12 65 -134 376 -216 546 -313 850 -365 1140
-18 105 -22 163 -22 365 -1 208 1 247 17 293 24 66 97 148 152 167 22 8 34 14
26 15 -8 0 -12 2 -9 5 12 12 197 -35 478 -122 378 -117 1024 -372 1559 -617
80 -36 147 -66 150 -66 3 0 -57 64 -134 142 -77 79 -124 128 -105 111 35 -32
96 -52 156 -53 34 0 48 18 37 47 -5 15 -86 127 -103 143 -17 16 -227 248 -283
313 -117 135 -212 303 -351 625 -91 210 -110 273 -110 357 1 122 59 211 198
302 89 58 116 82 116 103 0 20 -37 55 -66 64 -34 10 -104 65 -104 80 0 8 -8
16 -17 18 -10 2 25 19 77 38 l95 35 -90 6 c-49 3 -83 6 -74 7 9 1 22 13 29 27
16 30 102 91 200 140 145 73 265 144 288 168 29 31 25 58 -10 75 -38 18 -277
42 -307 30 -13 -5 -26 -7 -28 -5 -4 5 202 97 217 97 5 0 11 3 13 8 3 4 -86 6
-196 4 -111 -2 -197 1 -190 5 6 5 10 20 9 35 -9 84 93 210 329 406 l40 33 -42
-26 c-55 -32 -56 -24 -3 10 23 14 46 23 52 19 6 -4 8 -3 5 3 -7 11 93 79 278
190 266 159 667 370 950 499 94 42 175 81 180 87 7 7 7 8 0 5 -16 -9 -407 -90
-411 -85 -2 2 20 9 50 16 42 9 62 21 86 48 23 26 29 38 20 47 -7 7 -84 13
-218 16 -236 6 -254 11 -310 86 -18 24 -47 51 -65 61 -49 25 -166 27 -463 7
-371 -25 -1114 -26 -1354 -1 -90 10 -189 25 -219 35 -121 38 -168 131 -137
266 27 113 68 185 302 517 118 168 162 245 169 294 2 22 -5 59 -21 102 -38
102 -31 126 104 344 71 113 81 152 43 157 -38 6 -69 -6 -114 -45 -40 -35 -2 7
173 191 81 85 80 86 -25 16 -210 -141 -601 -377 -549 -332 l21 18 -26 12 c-22
11 -28 10 -38 -5 -7 -9 -13 -13 -13 -8 0 23 251 457 350 605 53 79 55 84 39
74 -8 -5 -64 -42 -124 -82 -61 -40 -96 -60 -80 -45 17 15 51 71 76 123 63 129
72 155 65 185 -14 54 -85 29 -315 -110 -123 -74 -230 -123 -280 -128 -17 -2
-38 -12 -47 -23 -14 -18 -14 -17 -3 6 7 14 30 51 51 84 21 32 37 60 36 62 -2
1 -48 -32 -103 -74 -55 -41 -90 -64 -78 -51 20 22 21 30 13 59 -6 19 -10 67
-10 107 0 91 -5 103 -43 103 -39 0 -115 -42 -314 -173 -241 -158 -399 -251
-618 -362 -342 -174 -576 -253 -792 -271 -237 -19 -496 134 -757 446 -135 160
-178 246 -297 595 -69 201 -98 266 -131 289 -20 14 -24 14 -40 0 -23 -22 -49
-114 -43 -155 4 -29 4 -31 -4 -9 -5 14 -30 95 -55 180 -25 85 -45 151 -46 145
-2 -57 -43 -466 -55 -554 -14 -110 -25 -152 -25 -100 0 21 -7 27 -45 37 -59
16 -151 108 -375 377 -219 264 -297 345 -334 345 -15 0 -29 -7 -33 -15z
m-1818 -2705 c10 -11 16 -20 13 -20 -3 0 -13 9 -23 20 -10 11 -16 20 -13 20 3
0 13 -9 23 -20z m-839 -392 l29 -33 -32 29 c-31 28 -38 36 -30 36 2 0 16 -15
33 -32z m70 -60 l29 -33 -32 29 c-18 17 -33 31 -33 33 0 8 8 1 36 -29z m70
-60 l29 -33 -32 29 c-31 28 -38 36 -30 36 2 0 16 -15 33 -32z m84 -73 c13 -14
21 -25 18 -25 -2 0 -15 11 -28 25 -13 14 -21 25 -18 25 2 0 15 -11 28 -25z
m91 -82 c13 -16 12 -17 -3 -4 -10 7 -18 15 -18 17 0 8 8 3 21 -13z m4166
-5345 c-3 -8 -6 -5 -6 6 -1 11 2 17 5 13 3 -3 4 -12 1 -19z m1120 -80 c-2 -18
-4 -6 -4 27 0 33 2 48 4 33 2 -15 2 -42 0 -60z m-650 -10 c-3 -8 -6 -5 -6 6
-1 11 2 17 5 13 3 -3 4 -12 1 -19z m-440 -30 c-3 -8 -6 -5 -6 6 -1 11 2 17 5
13 3 -3 4 -12 1 -19z m10 -60 c-3 -8 -6 -5 -6 6 -1 11 2 17 5 13 3 -3 4 -12 1
-19z m10 -40 c-3 -8 -6 -5 -6 6 -1 11 2 17 5 13 3 -3 4 -12 1 -19z m378 -38
c-9 -41 -17 -33 -9 9 4 17 9 30 11 27 3 -2 2 -19 -2 -36z m-368 -12 c-3 -8 -6
-5 -6 6 -1 11 2 17 5 13 3 -3 4 -12 1 -19z m10 -40 c-3 -8 -6 -5 -6 6 -1 11 2
17 5 13 3 -3 4 -12 1 -19z m340 -20 c-3 -7 -5 -2 -5 12 0 14 2 19 5 13 2 -7 2
-19 0 -25z m-330 -40 c-3 -7 -5 -2 -5 12 0 14 2 19 5 13 2 -7 2 -19 0 -25z
m320 0 c-3 -8 -6 -5 -6 6 -1 11 2 17 5 13 3 -3 4 -12 1 -19z m-310 -50 c-3 -7
-5 -2 -5 12 0 14 2 19 5 13 2 -7 2 -19 0 -25z m298 -8 c-9 -41 -17 -33 -9 9 4
17 9 30 11 27 3 -2 2 -19 -2 -36z m-18 -72 c-3 -7 -5 -2 -5 12 0 14 2 19 5 13
2 -7 2 -19 0 -25z m-10 -40 c-3 -8 -6 -5 -6 6 -1 11 2 17 5 13 3 -3 4 -12 1
-19z m-1508 -168 c0 -9 -4 -8 -9 5 -5 11 -9 27 -9 35 0 9 4 8 9 -5 5 -11 9
-27 9 -35z m8 -42 c-3 -8 -6 -5 -6 6 -1 11 2 17 5 13 3 -3 4 -12 1 -19z"/>
<path d="M6621 1404 c0 -11 3 -14 6 -6 3 7 2 16 -1 19 -3 4 -6 -2 -5 -13z"/>
<path d="M6611 1364 c0 -11 3 -14 6 -6 3 7 2 16 -1 19 -3 4 -6 -2 -5 -13z"/>
</g>
</svg>
